<svg width="24" height="24" viewBox="0 0 24 24" fill="none" xmlns="http://www.w3.org/2000/svg">
<g clip-path="url(#clip0_512_1526)">
<path d="M22.9585 9.09053H20.9521V7.91675C20.9476 6.40812 20.5103 4.94251 19.7067 3.74321C18.9031 2.54392 17.7772 1.67669 16.5008 1.27367C16.4759 0.932509 16.3392 0.614526 16.1177 0.3831C15.8962 0.151674 15.6063 0.0238026 15.3057 0.0249713H8.70541C8.40484 0.0238026 8.11492 0.151674 7.89343 0.3831C7.67194 0.614526 7.53516 0.932509 7.51035 1.27367C6.22978 1.6721 5.09908 2.53735 4.29123 3.73706C3.48338 4.93677 3.04286 6.40487 3.03707 7.91675V9.09053H1.03067C0.766064 9.09053 0.512291 9.21025 0.325183 9.42335C0.138075 9.63645 0.032959 9.92547 0.032959 10.2268V12.2123C0.032959 12.5136 0.138075 12.8027 0.325183 13.0158C0.512291 13.2289 0.766064 13.3486 1.03067 13.3486H1.90779L2.79586 20.8408C2.89666 21.6971 3.26659 22.4828 3.83711 23.0522C4.40764 23.6216 5.14006 23.9362 5.89865 23.9376H18.1234C18.882 23.9362 19.6144 23.6216 20.1849 23.0522C20.7555 22.4828 21.1254 21.6971 21.2262 20.8408L22.1143 13.3486H22.9585C23.2231 13.3486 23.4769 13.2289 23.664 13.0158C23.8511 12.8027 23.9562 12.5136 23.9562 12.2123V10.2268C23.9562 9.92547 23.8511 9.63645 23.664 9.42335C23.4769 9.21025 23.2231 9.09053 22.9585 9.09053ZM9.11108 20.3288C9.11108 20.6964 8.98286 21.049 8.75463 21.3089C8.5264 21.5688 8.21685 21.7149 7.89408 21.7149C7.57132 21.7149 7.26177 21.5688 7.03354 21.3089C6.80531 21.049 6.67709 20.6964 6.67709 20.3288V15.8835C6.67709 15.5158 6.80531 15.1633 7.03354 14.9034C7.26177 14.6434 7.57132 14.4974 7.89408 14.4974C8.21685 14.4974 8.5264 14.6434 8.75463 14.9034C8.98286 15.1633 9.11108 15.5158 9.11108 15.8835V20.3288ZM13.1787 20.3288C13.1787 20.6964 13.0505 21.049 12.8222 21.3089C12.594 21.5688 12.2845 21.7149 11.9617 21.7149C11.6389 21.7149 11.3294 21.5688 11.1011 21.3089C10.8729 21.049 10.7447 20.6964 10.7447 20.3288V15.7461C10.7447 15.3785 10.8729 15.0259 11.1011 14.766C11.3294 14.5061 11.6389 14.36 11.9617 14.36C12.2845 14.36 12.594 14.5061 12.8222 14.766C13.0505 15.0259 13.1787 15.3785 13.1787 15.7461V20.3288ZM17.2463 20.3288C17.2463 20.6964 17.1181 21.049 16.8898 21.3089C16.6616 21.5688 16.3521 21.7149 16.0293 21.7149C15.7065 21.7149 15.397 21.5688 15.1688 21.3089C14.9405 21.049 14.8123 20.6964 14.8123 20.3288V15.8835C14.8123 15.5158 14.9405 15.1633 15.1688 14.9034C15.397 14.6434 15.7065 14.4974 16.0293 14.4974C16.3521 14.4974 16.6616 14.6434 16.8898 14.9034C17.1181 15.1633 17.2463 15.5158 17.2463 15.8835V20.3288ZM18.7264 9.09053H5.22985V7.91675C5.23372 7.02786 5.47346 6.16106 5.91762 5.43013C6.36177 4.6992 6.98959 4.13829 7.71866 3.82102C7.83148 3.99888 7.97975 4.1437 8.1513 4.24356C8.32285 4.34341 8.51276 4.39546 8.70541 4.39542H15.2838C15.4727 4.39156 15.6582 4.33764 15.8257 4.23794C15.9932 4.13824 16.138 3.9955 16.2486 3.82102C16.9777 4.13829 17.6055 4.6992 18.0496 5.43013C18.4938 6.16106 18.7335 7.02786 18.7374 7.91675L18.7264 9.09053Z" fill="white"/>
</g>
<defs>
<clipPath id="clip0_512_1526">
<rect width="24" height="24" fill="white"/>
</clipPath>
</defs>
</svg>
