<svg width="25" height="25" viewBox="0 0 25 25" fill="none" xmlns="http://www.w3.org/2000/svg">
<g clip-path="url(#clip0_512_1532)">
<path d="M6.60002 0.299805C10.5 0.299805 14.5 0.299805 18.4 0.299805C18.6 0.299805 18.9 0.399805 19.1 0.399805C21.8 0.999805 23.6 2.6998 24.4 5.3998C24.5 5.7998 24.5 6.0998 24.6 6.4998C24.6 10.3998 24.6 14.3998 24.6 18.2998C24.6 18.3998 24.6 18.4998 24.6 18.5998C24.4 19.1998 24.4 19.8998 24.1 20.4998C22.9 23.0998 20.8 24.4998 17.9 24.5998C14.3 24.6998 10.7 24.5998 7.10003 24.5998C5.70002 24.5998 4.40002 24.1998 3.30002 23.3998C1.40002 21.9998 0.400024 20.0998 0.400024 17.7998C0.400024 14.2998 0.400024 10.6998 0.400024 7.1998C0.400024 6.6998 0.400024 6.2998 0.500024 5.7998C1.10002 3.0998 2.80002 1.2998 5.50002 0.499805C5.90002 0.399805 6.20002 0.399805 6.60002 0.299805ZM2.60002 12.4998C2.60002 14.2998 2.60002 15.9998 2.60002 17.7998C2.60002 18.3998 2.70002 18.8998 2.80002 19.3998C3.50002 21.2998 5.10002 22.4998 7.20002 22.4998C10.7 22.4998 14.3 22.4998 17.8 22.4998C18.3 22.4998 18.9 22.3998 19.4 22.2998C21.3 21.5998 22.5 19.9998 22.5 17.8998C22.5 14.3998 22.5 10.7998 22.5 7.2998C22.5 6.7998 22.4 6.1998 22.3 5.6998C21.7 3.7998 20 2.5998 17.9 2.5998C14.4 2.5998 10.8 2.5998 7.30003 2.5998C5.70003 2.5998 4.40002 3.1998 3.50002 4.4998C2.80002 5.1998 2.60002 6.1998 2.60002 7.1998C2.60002 8.8998 2.60002 10.6998 2.60002 12.4998Z" fill="white"/>
<path d="M12.5 18.7006C9.09995 18.7006 6.19995 15.9006 6.19995 12.4006C6.19995 9.00059 8.99995 6.10059 12.5 6.10059C15.9 6.10059 18.7 8.90059 18.7 12.3006C18.8 15.9006 16 18.7006 12.5 18.7006ZM16.6 12.5006C16.6 10.2006 14.8 8.40059 12.5 8.40059C10.2 8.40059 8.39995 10.2006 8.39995 12.5006C8.39995 14.8006 10.2 16.6006 12.5 16.6006C14.8 16.6006 16.6 14.7006 16.6 12.5006Z" fill="white"/>
<path d="M19 4.3999C19.9 4.3999 20.6 5.0999 20.6 5.9999C20.6 6.8999 19.9 7.5999 19 7.5999C18.1 7.5999 17.4 6.8999 17.4 5.9999C17.5 5.0999 18.2 4.3999 19 4.3999Z" fill="white"/>
</g>
<defs>
<clipPath id="clip0_512_1532">
<rect width="25" height="25" fill="white"/>
</clipPath>
</defs>
</svg>
