<svg width="25" height="25" viewBox="0 0 25 25" fill="none" xmlns="http://www.w3.org/2000/svg">
<g clip-path="url(#clip0_512_1536)">
<path d="M0.300171 12.4998C0.300171 5.7998 5.80017 0.299805 12.5002 0.299805C19.2002 0.299805 24.7002 5.7998 24.7002 12.4998C24.7002 19.1998 19.2002 24.6998 12.5002 24.6998C5.80017 24.6998 0.300171 19.2998 0.300171 12.4998ZM13.8002 12.5998C14.5002 12.5998 15.1002 12.5998 15.8002 12.5998C16.0002 12.5998 16.1002 12.5998 16.1002 12.2998C16.1002 11.9998 16.2002 11.6998 16.2002 11.3998C16.2002 10.8998 16.3002 10.3998 16.3002 9.7998C15.5002 9.7998 14.7002 9.7998 13.9002 9.7998C13.9002 9.0998 13.9002 8.4998 13.9002 7.8998C13.9002 7.6998 14.1002 7.5998 14.3002 7.5998C14.5002 7.5998 14.7002 7.5998 15.0002 7.5998C15.4002 7.5998 15.9002 7.5998 16.3002 7.5998C16.3002 6.5998 16.3002 5.5998 16.3002 4.5998C16.0002 4.5998 15.7002 4.5998 15.3002 4.5998C14.5002 4.5998 13.7002 4.5998 12.9002 4.6998C11.4002 4.8998 10.7002 5.7998 10.6002 7.1998C10.6002 7.8998 10.6002 8.5998 10.6002 9.2998C10.6002 9.4998 10.6002 9.5998 10.6002 9.7998C10.0002 9.7998 9.50017 9.7998 9.00017 9.7998C9.00017 10.6998 9.00017 11.6998 9.00017 12.5998C9.60017 12.5998 10.1002 12.6998 10.7002 12.6998C10.7002 15.3998 10.7002 17.9998 10.7002 20.5998C11.8002 20.5998 12.9002 20.6998 14.0002 20.4998C13.8002 17.8998 13.8002 15.2998 13.8002 12.5998Z" fill="white"/>
</g>
<defs>
<clipPath id="clip0_512_1536">
<rect width="25" height="25" fill="white"/>
</clipPath>
</defs>
</svg>
